# xmcd
#
# Track frame offsets:
#	150
#	7716
#	22471
#	38164
#	52180
#	66500
#	81978
#	94968
#	108842
#
# Disc length: 1640 seconds
#
# Revision: 0
# Processed by: cddbd v1.5PL3 Copyright (c) Steve Scherf et al.
# Submitted via: EasyCDDAExtractor 4.6.9.1
#
DISCID=77066609
DTITLE=Evrika
DYEAR=2002
DGENRE=
TTITLE0=Intro
TTITLE1=Cit as vrea
TTITLE2=M-am Indragostit
TTITLE3=De ziua mea
TTITLE4=Si simt..
TTITLE5=Nopti vin
TTITLE6=Cine petrece
TTITLE7=Sufletul meu
TTITLE8=Cit as vrea(RMx)
EXTD=
EXTT0=
EXTT1=
EXTT2=
EXTT3=
EXTT4=
EXTT5=
EXTT6=
EXTT7=
EXTT8=
PLAYORDER=
